<svg width="128" height="24" viewBox="0 0 128 24" fill="none" xmlns="http://www.w3.org/2000/svg">
<path d="M127.763 11.6541V7.05999C126.964 7.09594 124.567 7.4626 123.506 8.89332V7.37633H119.033V22.6828H123.506V15.4502C124.145 12.0423 127.04 11.6829 127.775 11.6541H127.763ZM87.693 11.8338C87.213 11.3509 86.6642 10.962 86.0697 10.6835C85.5802 10.4151 85.0422 10.2773 84.4976 10.2809C84.0942 10.2764 83.6949 10.3722 83.3281 10.5613C83.1611 10.6376 83.0194 10.7708 82.9231 10.9423C82.8269 11.1139 82.7808 11.315 82.7913 11.5175C82.7869 11.7228 82.8418 11.9243 82.9478 12.0915C83.0539 12.2587 83.2052 12.3828 83.3793 12.4449C84.0036 12.705 84.6445 12.9116 85.2965 13.0632C85.8275 13.1927 86.3488 13.3682 86.8558 13.5881C87.3657 13.8068 87.8439 14.1097 88.2745 14.4868C88.6948 14.8587 89.0428 15.3236 89.297 15.8528C89.5648 16.4443 89.6966 17.1017 89.6805 17.7652C89.7085 18.5755 89.546 19.3797 89.2094 20.0967C88.8728 20.8137 88.3739 21.4181 87.7633 21.8489C87.1776 22.276 86.5281 22.5804 85.8461 22.7475C85.1595 22.9329 84.456 23.027 83.7499 23.0279C82.6311 23.028 81.5196 22.8241 80.4587 22.424C79.4515 22.0716 78.5305 21.4613 77.7682 20.641L79.9794 17.5279C80.5184 18.0818 81.1307 18.5378 81.7944 18.8796C82.3752 19.2083 83.0167 19.3782 83.6668 19.3757C84.0462 19.3713 84.4198 19.2705 84.7597 19.0809C84.9324 18.9906 85.0764 18.843 85.1723 18.6579C85.2683 18.4728 85.3116 18.2592 85.2965 18.0456C85.2988 17.8179 85.2387 17.595 85.1243 17.4072C85.01 17.2193 84.8469 17.0757 84.6574 16.9959C83.9909 16.6839 83.2998 16.4432 82.5932 16.277C82.1046 16.1479 81.6242 15.9822 81.1553 15.7809C80.6934 15.5791 80.2622 15.2977 79.8772 14.9469C79.5093 14.5938 79.2056 14.1642 78.9825 13.6815C78.733 13.1044 78.6103 12.4683 78.6246 11.8266C78.6036 10.9968 78.7849 10.1764 79.1486 9.4541C79.491 8.80406 79.961 8.25073 80.5226 7.83646C81.0806 7.41591 81.6989 7.107 82.3504 6.92339C83.0055 6.73044 83.6798 6.63139 84.357 6.62862C85.3815 6.62744 86.3997 6.80945 87.3734 7.16783C88.303 7.4946 89.1565 8.04957 89.8722 8.79267L87.693 11.8338ZM113.876 13.0417C113.87 12.3371 113.644 11.6573 113.237 11.1221C112.974 10.8195 112.655 10.586 112.302 10.4381C111.95 10.2902 111.573 10.2316 111.198 10.2665C110.791 10.2627 110.386 10.3406 110.003 10.4966C109.655 10.6397 109.332 10.8515 109.051 11.1221C108.788 11.3864 108.571 11.7033 108.412 12.0567C108.27 12.3634 108.181 12.6977 108.15 13.0417H113.876ZM117.998 15.1195V15.7306C118.008 15.9245 118.008 16.119 117.998 16.3129H108.13C108.159 16.7237 108.275 17.1208 108.469 17.4704C108.662 17.8214 108.911 18.1287 109.204 18.3763C109.51 18.634 109.851 18.8355 110.214 18.973C110.586 19.1168 110.977 19.1897 111.371 19.1887C111.995 19.2092 112.614 19.0561 113.173 18.743C113.643 18.466 114.052 18.0727 114.368 17.5927L117.48 19.7998C116.832 20.8404 115.949 21.6689 114.924 22.2011C113.792 22.7744 112.561 23.0568 111.319 23.0279C110.334 23.0344 109.355 22.852 108.424 22.4887C107.546 22.1521 106.735 21.6217 106.041 20.9286C105.35 20.2274 104.803 19.3665 104.437 18.4051C104.028 17.3238 103.828 16.1575 103.849 14.9829C103.835 13.8227 104.029 12.6713 104.417 11.5966C104.776 10.6318 105.304 9.75862 105.97 9.02992C106.641 8.31766 107.429 7.76068 108.29 7.39071C109.218 6.99314 110.205 6.79559 111.198 6.80836C112.14 6.7984 113.075 6.99119 113.952 7.37633C114.768 7.73846 115.504 8.29809 116.106 9.01554C116.725 9.76546 117.203 10.6482 117.512 11.611C117.862 12.7332 118.032 13.916 118.017 15.1051L117.998 15.1195ZM64.1049 11.5247V6.90182H60.2705V3.47241C60.1746 1.49529 59.3439 0.0214388 55.9504 0.0214388V17.8299C55.9473 18.5435 56.029 19.2544 56.1932 19.9436C56.3381 20.5492 56.6 21.1114 56.9601 21.59C57.3458 22.0669 57.8313 22.4277 58.3725 22.6397C59.1284 22.9103 59.9183 23.0414 60.7115 23.0279C61.8669 23.0438 63.0158 22.8296 64.1049 22.3953V18.2972C63.378 18.5069 62.6314 18.6179 61.881 18.6279C61.6473 18.6605 61.4101 18.6313 61.1883 18.5427C60.9664 18.4541 60.766 18.3085 60.6028 18.1175C60.3473 17.6507 60.2329 17.1034 60.2769 16.5574V11.5247H64.1049Z" fill="#008FB4"/>
<path d="M99.9888 14.5157L105.037 7.32613H99.6948L95.2213 13.6817V3.61633C95.1383 1.54575 94.3394 0.0215686 90.8948 0.0215686V22.683H95.2213V15.364L100.334 22.683H105.734L99.9888 14.5157ZM77.0079 22.6686V12.5314C77.0079 8.16731 73.9275 6.59999 71.1987 6.59999C69.0501 6.47936 66.9363 7.24645 65.2554 8.75685L67.5113 11.9059C68.4197 11.0083 69.5548 10.4527 70.7578 10.317C72.4002 10.317 72.7389 11.3738 72.7389 12.7255V12.9843H71.2626C67.4665 12.9843 65.1851 14.832 65.1851 18.1248C65.1851 21.7196 67.997 22.6542 71.4224 22.6542L77.0079 22.6686ZM72.7389 19.4836H71.3201C70.2145 19.4836 69.5371 18.966 69.5371 17.8947C69.5371 16.8235 70.2146 16.2052 71.5694 16.2052H72.7389V19.4836ZM40.1911 2.80392C40.1911 3.54756 40.4537 4.26075 40.9211 4.78659C41.3885 5.31242 42.0224 5.60783 42.6834 5.60783C43.3445 5.60783 43.9784 5.31242 44.4458 4.78659C44.9132 4.26075 45.1758 3.54756 45.1758 2.80392C45.1758 2.06027 44.9132 1.34708 44.4458 0.821248C43.9784 0.295412 43.3445 0 42.6834 0C42.0224 0 41.3885 0.295412 40.9211 0.821248C40.4537 1.34708 40.1911 2.06027 40.1911 2.80392ZM40.6129 6.9379H40.4275V22.683H44.933V10.2523C44.8051 8.33986 43.936 6.9379 40.6129 6.9379ZM54.96 11.6542V7.06012C54.1675 7.09607 51.7646 7.46273 50.7038 8.89345V7.37646H46.2303V22.683H50.7038V15.5725C50.7007 15.5319 50.7007 15.491 50.7038 15.4503C51.3428 12.0425 54.2314 11.683 54.9727 11.6542H54.96ZM126.465 20.3751H126.216V20.9072H126.465C126.498 20.9091 126.53 20.9037 126.56 20.8912C126.59 20.8787 126.618 20.8594 126.641 20.8345C126.664 20.8096 126.683 20.7796 126.696 20.7464C126.708 20.7131 126.715 20.6773 126.715 20.6411C126.715 20.605 126.708 20.5692 126.696 20.5359C126.683 20.5027 126.664 20.4727 126.641 20.4478C126.618 20.4229 126.59 20.4036 126.56 20.3911C126.53 20.3786 126.498 20.3732 126.465 20.3751ZM126.715 21.849L126.408 21.13H126.216V21.849H125.935V20.1019H126.536C126.599 20.1 126.663 20.1125 126.722 20.1389C126.781 20.1652 126.835 20.2047 126.881 20.2551C126.926 20.3054 126.962 20.3656 126.986 20.4319C127.01 20.4983 127.022 20.5694 127.021 20.6411C127.022 20.7458 126.994 20.848 126.94 20.9332C126.886 21.0184 126.809 21.0823 126.721 21.1157L127.06 21.8346L126.715 21.849ZM126.421 19.6921C126.187 19.6792 125.956 19.7452 125.756 19.8817C125.556 20.0182 125.398 20.2189 125.3 20.4579C125.203 20.6968 125.171 20.9632 125.21 21.2225C125.248 21.4818 125.355 21.7223 125.516 21.9128C125.677 22.1033 125.885 22.2352 126.113 22.2915C126.341 22.3477 126.579 22.3257 126.796 22.2283C127.013 22.1309 127.2 21.9626 127.331 21.745C127.462 21.5275 127.532 21.2707 127.533 21.0078C127.537 20.8391 127.511 20.6712 127.458 20.5136C127.404 20.3561 127.323 20.212 127.22 20.0897C127.117 19.9675 126.993 19.8694 126.856 19.8011C126.718 19.7329 126.571 19.6958 126.421 19.6921ZM126.421 22.6255C126.136 22.6354 125.854 22.5497 125.613 22.3794C125.371 22.2091 125.18 21.9618 125.064 21.6689C124.947 21.376 124.911 21.0508 124.959 20.7347C125.007 20.4185 125.138 20.1256 125.335 19.8932C125.531 19.6609 125.785 19.4995 126.063 19.4297C126.342 19.3599 126.632 19.3848 126.898 19.5012C127.164 19.6175 127.393 19.8202 127.556 20.0834C127.719 20.3465 127.809 20.6583 127.814 20.9791C127.819 21.4011 127.675 21.8083 127.414 22.1115C127.153 22.4147 126.796 22.5891 126.421 22.5967V22.6255ZM27.8506 13.8039L29.8509 7.33332L31.8512 13.8039H27.8506ZM31.9535 0.0215686H27.9337L21.7284 18.4699H19.2871C17.6228 18.5492 15.9736 18.0848 14.5388 17.1327C13.967 16.7198 13.5029 16.1435 13.1941 15.4626C12.8853 14.7817 12.7429 14.0207 12.7814 13.2575V11.1006H10.8003C8.9575 11.0438 7.19282 10.2512 5.82192 8.86469C4.75088 7.60091 4.07745 5.97711 3.90471 4.24182H17.7917C20.316 4.24182 21.2491 5.6294 21.8306 6.87319C22.1163 7.49703 22.331 8.15889 22.4697 8.84312L24.2271 3.61633C24.2271 3.61633 22.7573 0.0215686 17.7917 0.0215686H0V2.17843C0 6.2477 1.07364 9.51175 3.19535 11.8555C4.86084 13.6287 6.96782 14.7875 9.23455 15.1771C10.0334 19.7928 13.8039 22.6686 19.2871 22.6686H24.9876L26.2657 18.513H33.4042L34.6823 22.6614H39.5584L31.9535 0.0215686Z" fill="#008FB4"/>
</svg>
