<svg width="63" height="63" viewBox="0 0 63 63" fill="none" xmlns="http://www.w3.org/2000/svg">
<path d="M31.5 0.65625C48.5345 0.65625 62.3438 14.4655 62.3438 31.5C62.3438 48.5345 48.5345 62.3438 31.5 62.3438C14.4655 62.3438 0.65625 48.5345 0.65625 31.5C0.65625 14.4655 14.4655 0.65625 31.5 0.65625Z" stroke="#B76080" stroke-width="1.3125"/>
<path d="M39.7031 30.1875C39.941 30.1875 40.1708 30.2737 40.3501 30.43C40.5294 30.5864 40.646 30.8023 40.6783 31.038L40.6875 31.1719V31.8281C40.6877 34.0641 39.8424 36.2174 38.3212 37.8562C36.8001 39.495 34.7155 40.4979 32.4857 40.6639L32.4844 43.6406C32.4843 43.89 32.3896 44.1301 32.2193 44.3124C32.049 44.4946 31.8159 44.6054 31.5671 44.6224C31.3183 44.6394 31.0723 44.5613 30.8788 44.4039C30.6853 44.2465 30.5588 44.0216 30.5248 43.7745L30.5156 43.6406V40.6639C28.3389 40.5022 26.2984 39.5427 24.7855 37.9693C23.2727 36.3958 22.3939 34.3193 22.3178 32.1379L22.3125 31.8281V31.1719C22.3126 30.9225 22.4073 30.6824 22.5776 30.5001C22.7479 30.3179 22.981 30.2071 23.2298 30.1901C23.4786 30.1731 23.7246 30.2512 23.9181 30.4086C24.1116 30.566 24.2381 30.7909 24.2721 31.038L24.2812 31.1719V31.8281C24.2811 33.6066 24.9686 35.3164 26.2 36.5996C27.4315 37.8829 29.1114 38.6403 30.8884 38.7135L31.1719 38.7188H31.8281C33.6066 38.7189 35.3164 38.0314 36.5996 36.8C37.8829 35.5685 38.6403 33.8886 38.7135 32.1116L38.7188 31.8281V31.1719C38.7188 30.9108 38.8225 30.6604 39.0071 30.4758C39.1917 30.2912 39.4421 30.1875 39.7031 30.1875ZM31.5 18.375C32.8924 18.375 34.2277 18.9281 35.2123 19.9127C36.1969 20.8973 36.75 22.2326 36.75 23.625V31.5C36.75 32.8924 36.1969 34.2277 35.2123 35.2123C34.2277 36.1969 32.8924 36.75 31.5 36.75C30.1076 36.75 28.7723 36.1969 27.7877 35.2123C26.8031 34.2277 26.25 32.8924 26.25 31.5V23.625C26.25 22.2326 26.8031 20.8973 27.7877 19.9127C28.7723 18.9281 30.1076 18.375 31.5 18.375Z" fill="white"/>
</svg>
