<svg width="40" height="40" viewBox="0 0 40 40" fill="none" xmlns="http://www.w3.org/2000/svg">
<path d="M26.2758 14.2524C26.1431 14.1839 26.014 14.1087 25.8888 14.0272C25.5248 13.7866 25.1911 13.503 24.8948 13.1827C24.1535 12.3345 23.8766 11.474 23.7746 10.8715H23.7787C23.6936 10.3715 23.7288 10.0479 23.7341 10.0479H20.3577V23.1038C20.3577 23.2791 20.3577 23.4524 20.3503 23.6236C20.3503 23.6449 20.3483 23.6645 20.347 23.6875C20.347 23.6969 20.347 23.7067 20.345 23.7165C20.345 23.719 20.345 23.7215 20.345 23.7239C20.3094 24.1924 20.1592 24.6449 19.9077 25.0417C19.6562 25.4385 19.311 25.7674 18.9025 25.9994C18.4768 26.2416 17.9953 26.3687 17.5055 26.368C15.9324 26.368 14.6574 25.0853 14.6574 23.5011C14.6574 21.9169 15.9324 20.6342 17.5055 20.6342C17.8033 20.6339 18.0993 20.6808 18.3824 20.773L18.3865 17.3352C17.527 17.2242 16.6538 17.2925 15.822 17.5358C14.9902 17.7792 14.2178 18.1922 13.5537 18.749C12.9717 19.2546 12.4825 19.858 12.1079 20.5318C11.9654 20.7776 11.4277 21.765 11.3625 23.3676C11.3216 24.2772 11.5948 25.2196 11.725 25.6091V25.6173C11.8069 25.8467 12.1243 26.6293 12.6416 27.2891C13.0587 27.8184 13.5515 28.2833 14.1041 28.6689V28.6608L14.1123 28.6689C15.7469 29.7797 17.5592 29.7068 17.5592 29.7068C17.8729 29.6941 18.9238 29.7068 20.1173 29.1412C21.441 28.5141 22.1946 27.5799 22.1946 27.5799C22.676 27.0217 23.0588 26.3856 23.3266 25.6988C23.6321 24.8957 23.7341 23.9324 23.7341 23.5474V16.6209C23.7751 16.6455 24.3206 17.0063 24.3206 17.0063C24.3206 17.0063 25.1065 17.5101 26.3328 17.8381C27.2125 18.0716 28.3978 18.1207 28.3978 18.1207V14.7689C27.9825 14.814 27.1392 14.6829 26.2758 14.2524Z" fill="#FDFDFD"/>
</svg>
